<svg width="3400" height="1380" viewBox="160 250 3400 1380" fill="none" xmlns="http://www.w3.org/2000/svg">
	 <rect width="3694" height="2103" id="repeat" fill="#666" opacity="0" display="none">
        <set attributeName="display" to="inline" begin="animateE2.end+0.5s" end="repeat.click;indefinite" />
    </rect>
	<g id="svgGroup" stroke-linecap="round" fill-rule="evenodd" font-size="9pt" stroke="#000" stroke-width="0.25mm" fill="none" style="stroke:#000;stroke-width:0.25mm;fill:none">
		<path d="M 25.5 2.25 L 35.4 2.25 L 9.9 107.25 L 0 107.25 L 25.5 2.25 Z M 25.8 2.25 L 35.7 2.25 L 61.2 107.25 L 51.3 107.25 L 25.8 2.25 Z M 50.85 84.75 L 12.6 84.75 L 12.6 75.3 L 50.85 75.3 L 50.85 84.75 Z" id="0" vector-effect="non-scaling-stroke">
			        <animate id="animateE1Border" attributeName="stroke-dashoffset" from="1720" to="0" begin="1s;repeat.click+0.25s" dur="0.75s"  keyTimes="0;1" calcMode="spline" keySplines=".12,0,.39,0;" />
        <set attributeName="stroke-dashoffset" to="0" begin="animateE1Border.end" end="repeat.click;indefinite" />
		</path>
		<path d="M 123.9 107.25 L 114 107.25 L 114 32.25 L 123.9 32.25 L 123.9 107.25 Z M 82.35 54.75 L 72.45 54.75 Q 72.45 47.7 75.525 42.075 Q 78.6 36.45 83.925 33.225 A 22.427 22.427 0 0 1 94.335 30.05 A 27.195 27.195 0 0 1 96 30 A 24.234 24.234 0 0 1 104.186 31.356 A 22.297 22.297 0 0 1 108.15 33.225 Q 113.55 36.45 116.625 42.075 Q 119.7 47.7 119.7 54.75 L 114 54.75 A 15.123 15.123 0 0 0 113.011 49.198 A 13.796 13.796 0 0 0 109.5 44.1 Q 105 39.9 98.1 39.9 L 96 30 L 98.1 39.9 Q 105 39.9 109.5 44.1 M 82.35 84.75 L 72.45 84.75 Q 72.45 91.8 75.525 97.425 Q 78.6 103.05 83.925 106.275 A 21.701 21.701 0 0 0 88.326 108.31 A 24.148 24.148 0 0 0 96 109.5 A 27.493 27.493 0 0 0 97.254 109.472 A 22.946 22.946 0 0 0 108.15 106.275 Q 113.55 103.05 116.625 97.425 Q 119.7 91.8 119.7 84.75 L 114 84.75 A 18.049 18.049 0 0 1 113.99 85.35 A 13.838 13.838 0 0 1 109.5 95.4 A 15.036 15.036 0 0 1 103.587 98.825 A 18.587 18.587 0 0 1 98.1 99.6 A 20.498 20.498 0 0 1 96.549 99.542 A 15.494 15.494 0 0 1 86.85 95.4 A 13.796 13.796 0 0 1 83.339 90.302 A 15.123 15.123 0 0 1 82.35 84.75 Z M 123.9 2.25 L 123.9 32.4 L 114 32.4 L 114 2.25 L 123.9 2.25 Z M 82.35 84.75 L 72.45 84.75 L 72.45 54.75 L 82.35 54.75 L 82.35 84.75 Z M 82.35 54.75 A 18.049 18.049 0 0 1 82.36 54.15 A 13.838 13.838 0 0 1 86.85 44.1 A 15.085 15.085 0 0 1 92.445 40.762 A 17.845 17.845 0 0 1 98.1 39.9 M 98.1 99.6 L 96 109.5 L 98.1 99.6 Z" id="1" vector-effect="non-scaling-stroke">
			<animate id="animateA1Border" attributeName="stroke-dashoffset" from="430" to="0" begin="animateE1Border.end" dur="0.2s"  keyTimes="0;1" calcMode="spline" keySplines=".12,0,.39,0;" />
        <set attributeName="stroke-dashoffset" to="0" begin="animateA1Border.end" end="repeat.click;indefinite" />
		</path>
		<path d="M 192.3 54.75 L 182.4 54.75 Q 182.4 48.15 177.9 43.8 A 15.326 15.326 0 0 0 167.691 39.477 A 20.163 20.163 0 0 0 166.65 39.45 A 18.849 18.849 0 0 0 160.536 40.415 A 16.775 16.775 0 0 0 156.15 42.675 Q 151.65 45.9 150.9 52.95 L 141.3 50.85 Q 142.05 44.85 145.575 40.2 A 25.3 25.3 0 0 1 153.964 33.129 A 29.39 29.39 0 0 1 154.65 32.775 Q 160.2 30 166.65 30 L 166.65 39.45 L 166.65 30 Q 160.2 30 154.65 32.775 M 165.15 70.65 A 17.114 17.114 0 0 0 159.249 71.635 A 15.179 15.179 0 0 0 154.05 74.85 A 13.838 13.838 0 0 0 149.56 84.9 A 18.049 18.049 0 0 0 149.55 85.5 A 15.685 15.685 0 0 0 150.538 91.154 A 14.158 14.158 0 0 0 153.9 96.225 A 16.068 16.068 0 0 0 157.608 98.993 A 12.689 12.689 0 0 0 163.65 100.5 A 19.899 19.899 0 0 0 168.501 99.936 A 15.127 15.127 0 0 0 173.775 97.5 Q 177.9 94.5 180.15 88.725 A 31.252 31.252 0 0 0 181.82 82.513 Q 182.4 79.037 182.4 75 L 182.4 54.6 L 188.1 54.6 L 188.1 75 M 192.3 107.25 L 182.4 107.25 L 182.4 54.75 L 192.3 54.75 L 192.3 107.25 Z M 188.1 75 A 56.265 56.265 0 0 1 187.408 84.035 A 41.793 41.793 0 0 1 184.95 93 A 34.562 34.562 0 0 1 181.749 99.165 A 25.673 25.673 0 0 1 176.325 105.15 Q 170.85 109.5 163.65 109.5 Q 157.2 109.5 151.725 106.35 Q 146.25 103.2 142.95 97.725 A 23.136 23.136 0 0 1 139.653 85.921 A 27.371 27.371 0 0 1 139.65 85.5 A 24.003 24.003 0 0 1 140.718 78.236 A 21.084 21.084 0 0 1 143.025 73.275 Q 146.4 67.95 152.175 64.8 A 26.011 26.011 0 0 1 162.935 61.727 A 31.476 31.476 0 0 1 165.15 61.65 M 165.15 61.65 L 165.15 70.65 L 190.35 70.65 L 190.35 61.65 L 165.15 61.65 Z M 166.65 30 A 28.645 28.645 0 0 1 174.42 31.02 A 24.541 24.541 0 0 1 179.775 33.225 Q 185.55 36.45 188.925 42.075 A 23.846 23.846 0 0 1 192.27 53.441 A 28.649 28.649 0 0 1 192.3 54.75 M 190.35 61.65 L 165.15 61.65 L 165.15 70.65 M 139.65 85.5 L 149.55 85.5 L 139.65 85.5 Z M 163.65 109.5 L 163.65 100.5 L 163.65 109.5 Z M 182.4 75 L 188.1 75 L 182.4 75 Z" id="2" vector-effect="non-scaling-stroke">
			        <animate id="animateNBorder" attributeName="stroke-dashoffset" from="330" to="0" begin="animateA1Border.end" dur="0.2s"  keyTimes="0;1" calcMode="spline" keySplines=".12,0,.39,0;" />
        <set attributeName="stroke-dashoffset" to="0" begin="animateNBorder.end" end="repeat.click;indefinite" />
		</path>
</g>
</svg>
