
<svg version="1.1" xmlns="http://www.w3.org/2000/svg" xmlns:xlink="http://www.w3.org/1999/xlink" width="392.5899963378906" height="64"><defs></defs><g transform="translate(-201.18191528320312,31.5)"><rect fill="rgb(255,255,255)" stroke="none" x="0" y="0" width="392.5899963378906" height="64" fill-opacity="0" transform="translate(201.18191528320312,-31.5)"></rect><g transform="translate(196.7119140625,32.5) rotate(0,0,0) translate(-196.7119140625,-32.5) matrix(1,0,0,1,196.7119140625,32.5)" stroke-dasharray="9940" stroke-dashoffset="9940" fill="none" stroke-linecap="round" stroke="#fff" stroke-width="50"><animate attributeName="stroke-dashoffset" dur="6s" from="9940" to="0" fill="freeze"/></path></g></mask></defs><g clip-path="url(#__lottie_element_2)"><g mask="url(#a)" transform="translate(82 480)" fill="#1F61A5" stroke="#FFF" stroke-width=".25" font-size="230" font-family="Segoe Script" font-weight="400" aria-label="Adam Lahbib" display="block"><path fill="rgb(0,0,0)" fill-opacity="1" d="M58.66-59.54L58.66-59.54Q59.91-62.33 60.44-62.33L60.44-62.33L60.64-62.33Q61.25-62.33 63.11-61.04Q64.98-59.74 64.98-58.61L64.98-58.61Q64.98-57.03 54.60-34.13Q44.23-11.23 42.71-8.45Q41.19-5.68 40.62-4.74Q40.05-3.81 39.08-2.68L39.08-2.68Q37.34-0.53 34.74-0.53L34.74-0.53Q33.69-0.53 32.88-0.27Q32.07-0.00 31.91-0.00L31.91-0.00Q30.61-0.00 30.61-0.61L30.61-0.61Q30.61-0.73 30.96-1.60Q31.30-2.48 40.22-21.28L40.22-21.28Q30.69-21.64 23.48-21.85L23.48-21.85Q16.55-13.13 10.91-3.61L10.91-3.61Q10.23-2.27 9.62-1.73Q9.01-1.18 7.96-1.18Q6.90-1.18 5.69-2.25Q4.47-3.33 4.47-4.74L4.47-4.74Q4.47-8.80 14.93-22.09L14.93-22.09Q10.02-22.09 8.71-21.85Q7.39-21.60 7.02-21.60L7.02-21.60Q5.93-21.60 5.93-23.45Q5.93-25.29 8.10-26.69Q10.27-28.09 13.91-28.09L13.91-28.09Q14.20-28.09 14.93-28.13L14.93-28.13Q17.44-28.25 20.07-28.33L20.07-28.33Q28.91-38.71 38.55-47.58Q48.20-56.46 55.25-60.02L55.25-60.02Q56.39-60.59 57.05-60.57Q57.72-60.55 58.66-59.54ZM55.82-53.82L55.82-53.82Q41.03-42.60 28.79-28.33L28.79-28.33Q35.96-28.17 43.30-27.72L43.30-27.72Q50.67-43.25 55.82-53.82ZM104.21-63.43Q104.98-63.43 105.42-62.94Q105.87-62.46 105.87-61.95Q105.87-61.44 105.08-60.08Q104.29-58.73 101.45-54.17Q98.62-49.61 97.03-47.01L97.03-47.01Q87.84-32.06 82.61-21.73Q77.38-11.39 77.38-9.24L77.38-9.24L77.38-8.92Q77.38-7.26 78.59-7.26Q79.81-7.26 81.53-8.39Q83.26-9.53 84.55-10.82Q85.85-12.12 87.17-13.52Q88.48-14.92 88.77-15.16Q89.05-15.40 89.50-15.40L89.50-15.40Q90.19-15.40 90.39-14.53Q90.59-13.66 90.59-12.10Q90.59-10.54 90.35-10.05L90.35-10.05Q89.17-7.78 85.18-4.52Q81.19-1.26 77.62-1.26L77.62-1.26Q71.54-1.26 71.54-6.41L71.54-6.41Q71.54-9.61 73.97-14.80L73.97-14.80Q70.69-10.54 67.29-7.54L67.29-7.54Q60.97-2.03 56.30-2.03L56.30-2.03Q53.71-2.03 52.48-3.85Q51.24-5.68 51.24-9.10Q51.24-12.53 53.91-17.31Q56.59-22.09 60.58-25.92Q64.57-29.75 69.44-32.32Q74.30-34.90 78.39-34.90L78.39-34.90Q79.69-34.90 81.43-33.32L81.43-33.32Q82.61-35.18 85.77-40.77L85.77-40.77Q95.70-57.51 98.90-61.20L98.90-61.20Q100.60-63.43 104.21-63.43L104.21-63.43ZM78.96-29.51L78.96-29.51Q73.12-28.21 68.10-24.08Q63.07-19.94 60.56-15.42Q58.05-10.91 58.05-9.57Q58.05-8.23 58.61-8.23L58.61-8.23Q61.05-8.23 70.65-19.09L70.65-19.09Q75.43-24.44 78.96-29.51ZM118.39-33.48L118.39-33.48Q121.47-33.48 121.47-31.37L121.47-31.37Q121.47-30.24 120.95-29.71Q120.42-29.18 118.70-26.20Q116.97-23.23 114.89-18.58Q112.80-13.94 112.19-10.66L112.19-10.66Q112.07-10.26 112.07-9.53L112.07-9.53Q112.07-7.30 113.29-7.30Q114.50-7.30 116.16-8.45Q117.83-9.61 119.12-10.93Q120.42-12.24 121.66-13.62Q122.89-15.00 123.13-15.20Q123.38-15.40 123.86-15.40L123.86-15.40Q124.63-15.40 124.80-14.23Q124.96-13.05 124.96-11.80Q124.96-10.54 124.72-10.05L124.72-10.05Q123.54-7.74 119.55-4.50Q115.56-1.26 112.29-1.26Q109.03-1.26 107.49-3.25Q105.95-5.23 105.95-7.64Q105.95-10.05 106.76-11.88L106.76-11.88Q103.40-7.50 99.04-4.46Q94.68-1.42 91.93-1.42Q89.17-1.42 87.43-3.08L87.43-3.08Q85.20-5.15 85.20-8.82Q85.20-12.49 86.84-16.19Q88.48-19.90 91.16-22.96Q93.83-26.02 97.03-28.53L97.03-28.53Q103.76-33.80 109.44-33.80L109.44-33.80Q111.62-33.80 113.00-33.07Q114.38-32.34 114.75-31.25L114.75-31.25Q115.72-32.71 116.39-33.09Q117.06-33.48 118.39-33.48ZM113.00-28.98L113.00-28.98Q106.07-28.98 98.66-21.28L98.66-21.28Q96.02-18.52 93.81-14.67Q91.60-10.82 91.60-9.41Q91.60-7.99 92.41-7.99L92.41-7.99Q93.55-7.99 98.74-12.47Q103.92-16.94 105.63-19.05L105.63-19.05Q107.49-21.40 113.00-28.98ZM121.27-2.43L121.27-2.43L119.28-2.52L118.55-2.52Q118.15-2.64 117.68-3.00Q117.22-3.37 116.97-3.53Q116.73-3.69 116.73-4.12Q116.73-4.54 117.06-5.60L117.06-5.60Q124.96-22.98 132.33-33.40L132.33-33.40Q133.14-34.53 134.95-35.12Q136.75-35.71 138.45-35.71L138.45-35.71Q139.47-35.71 139.47-34.13L139.47-34.13Q139.47-33.68 139.14-32.93Q138.82-32.18 137.52-30.48Q136.22-28.78 134.44-26.59Q132.66-24.40 132.42-24.08L132.42-24.08Q137.97-29.83 142.45-32.65Q146.92-35.46 148.93-35.46Q150.94-35.46 152.01-34.31Q153.08-33.15 153.08-31.84Q153.08-30.52 152.90-29.65Q152.72-28.78 152.23-27.83Q151.75-26.87 151.40-26.20Q151.06-25.54 150.25-24.46Q149.44-23.39 149.13-22.98Q148.83-22.58 147.88-21.44Q146.92-20.31 146.84-20.19L146.84-20.19Q147.98-21.32 150.00-23.55Q152.03-25.78 153.43-27.28Q154.83-28.78 156.93-30.66Q159.04-32.55 160.87-33.72L160.87-33.72Q165.24-36.48 169.74-36.48L169.74-36.48Q171.28-36.48 172.33-35.51Q173.39-34.53 173.39-33.17Q173.39-31.82 170.11-26.69Q166.82-21.56 163.56-16.40Q160.30-11.23 160.30-9.89L160.30-9.89Q160.30-8.03 160.99-7.68Q161.68-7.34 162.65-7.42Q163.62-7.50 165.38-8.68Q167.15-9.85 168.53-11.11L168.53-11.11Q170.75-13.13 172.66-15.04L172.66-15.04Q173.06-15.40 173.55-15.40L173.55-15.40Q174.32-15.40 174.48-14.23Q174.64-13.05 174.64-11.80Q174.64-10.54 174.40-10.05L174.40-10.05Q173.23-7.78 169.21-4.50Q165.20-1.22 161.51-1.22L161.51-1.22Q161.07-1.22 160.87-1.26L160.87-1.26Q156.69-1.66 155.09-3.55Q153.49-5.43 153.49-8.03Q153.49-10.62 155.25-14.31Q157.02-18.00 159.12-21.00Q161.23-24.00 162.99-26.41Q164.76-28.82 164.76-29.02Q164.76-29.22 164.43-29.22L164.43-29.22Q163.18-29.22 158.84-25.17L158.84-25.17Q151.42-18.24 146.03-11.80L146.03-11.80Q144.61-10.09 139.30-3.16L139.30-3.16Q138.70-2.35 137.38-2.35Q136.06-2.35 134.64-2.86Q133.23-3.37 133.23-4.18L133.23-4.18Q133.23-4.58 139.67-15.55Q146.11-26.51 146.11-27.50Q146.11-28.49 144.92-28.49Q143.72-28.49 139.99-24.93L139.99-24.93Q129.74-15.12 124.11-5.43L124.11-5.43Q123.74-4.87 122.69-3.65Q121.64-2.43 121.27-2.43ZM208.97-7.74L208.97-7.74Q201.43-1.02 190.98-1.02L190.98-1.02Q184.66-1.02 181.94-3.69L181.94-3.69Q180.40-5.15 180.40-8.84L180.40-8.84Q180.40-14.51 189.03-16.17L189.03-16.17Q191.75-16.70 195.56-16.70Q199.37-16.70 205.97-15.28L205.97-15.28Q209.50-19.21 214.38-26.85Q219.27-34.49 222.10-38.63Q224.94-42.76 228.55-47.08Q232.15-51.39 236.08-54.88L236.08-54.88Q244.07-62.01 251.89-62.01L251.89-62.01Q255.38-62.01 256.92-60.25Q258.46-58.48 258.46-56.07Q258.46-53.66 256.25-50.46Q254.04-47.26 251.14-44.79Q248.24-42.31 245.43-40.59Q242.61-38.87 240.99-38.87Q239.37-38.87 238.19-40.25Q237.02-41.62 237.02-42.90Q237.02-44.18 237.36-44.68Q237.71-45.19 238.07-45.19Q238.43-45.19 238.52-44.75L238.52-44.75Q239.81-45.15 242.67-47.28Q245.53-49.41 247.88-51.72Q250.23-54.03 250.23-54.61Q250.23-55.20 249.52-55.20Q248.81-55.20 247.59-54.72Q246.38-54.23 244.35-52.71Q242.33-51.19 239.97-48.80L239.97-48.80Q234.30-43.12 227.33-32.71L227.33-32.71Q225.71-30.36 222.75-25.86L222.75-25.86Q216.71-16.74 214.12-13.38L214.12-13.38Q234.91-7.91 243.82-7.91L243.82-7.91Q247.96-7.91 249.62-8.96L249.62-8.96Q250.23-9.32 250.43-9.32Q250.63-9.32 250.63-9.00Q250.63-8.68 250.27-8.03Q249.90-7.38 248.47-5.27Q247.03-3.16 246.34-2.76L246.34-2.76Q244.35-1.58 239.59-1.58Q234.83-1.58 230.51-2.27Q226.20-2.96 223.56-3.63Q220.93-4.30 215.76-5.80Q210.59-7.30 208.97-7.74ZM194.18-10.22L194.18-10.22Q188.87-10.22 188.87-8.96L188.87-8.96Q188.87-8.47 189.78-8.11Q190.69-7.74 191.95-7.74L191.95-7.74Q195.88-7.74 199.53-9.81L199.53-9.81Q196.41-10.22 194.18-10.22ZM279.73-33.48L279.73-33.48Q282.81-33.48 282.81-31.37L282.81-31.37Q282.81-30.24 282.29-29.71Q281.76-29.18 280.04-26.20Q278.31-23.23 276.23-18.58Q274.14-13.94 273.53-10.66L273.53-10.66Q273.41-10.26 273.41-9.53L273.41-9.53Q273.41-7.30 274.63-7.30Q275.84-7.30 277.50-8.45Q279.16-9.61 280.46-10.93Q281.76-12.24 282.99-13.62Q284.23-15.00 284.47-15.20Q284.72-15.40 285.20-15.40L285.20-15.40Q285.97-15.40 286.14-14.23Q286.30-13.05 286.30-11.80Q286.30-10.54 286.05-10.05L286.05-10.05Q284.88-7.74 280.89-4.50Q276.90-1.26 273.63-1.26Q270.37-1.26 268.83-3.25Q267.29-5.23 267.29-7.64Q267.29-10.05 268.10-11.88L268.10-11.88Q264.74-7.50 260.38-4.46Q256.02-1.42 253.27-1.42Q250.51-1.42 248.77-3.08L248.77-3.08Q246.54-5.15 246.54-8.82Q246.54-12.49 248.18-16.19Q249.82-19.90 252.50-22.96Q255.17-26.02 258.37-28.53L258.37-28.53Q265.10-33.80 270.78-33.80L270.78-33.80Q272.96-33.80 274.34-33.07Q275.72-32.34 276.08-31.25L276.08-31.25Q277.06-32.71 277.73-33.09Q278.39-33.48 279.73-33.48ZM274.34-28.98L274.34-28.98Q267.41-28.98 260.00-21.28L260.00-21.28Q257.36-18.52 255.15-14.67Q252.94-10.82 252.94-9.41Q252.94-7.99 253.75-7.99L253.75-7.99Q254.89-7.99 260.08-12.47Q265.26-16.94 266.97-19.05L266.97-19.05Q268.83-21.40 274.34-28.98ZM318.27-14.63L318.27-14.63Q318.56-12.77 318.56-11.70Q318.56-10.62 318.17-9.83Q317.79-9.04 316.47-7.60Q315.15-6.16 313.33-4.70L313.33-4.70Q308.87-1.18 304.21-1.18L304.21-1.18Q297.52-1.18 297.52-7.10L297.52-7.10Q297.52-12.24 306.48-27.60L306.48-27.60Q306.80-28.17 306.93-28.41L306.93-28.41Q303.81-26.22 294.99-16.48Q286.18-6.73 283.26-2.68L283.26-2.68Q283.01-2.31 282.04-1.87Q281.07-1.42 280.52-1.42Q279.98-1.42 279.35-1.77Q278.72-2.11 278.56-2.11L278.56-2.11Q278.03-2.11 278.03-2.46Q278.03-2.80 279.47-6.18Q280.91-9.57 283.26-14.59L283.26-14.59Q289.70-28.45 302.43-50.66L302.43-50.66Q306.89-58.44 309.40-61.69L309.40-61.69Q311.18-64.00 315.40-64.00L315.40-64.00Q316.29-64.00 316.41-63.47Q316.53-62.94 316.53-62.33Q316.53-61.73 316.29-61.12L316.29-61.12L311.95-54.35Q299.06-34.25 292.54-21.04L292.54-21.04Q298.86-28.74 304.82-32.91L304.82-32.91Q308.51-35.55 310.35-35.55Q312.19-35.55 313.69-34.96Q315.19-34.37 315.19-32.14L315.19-32.14Q315.19-31.33 312.56-26.14L312.56-26.14Q304.66-10.58 304.66-8.86Q304.66-7.14 306.07-7.14L306.07-7.14Q308.14-7.14 312.44-11.15L312.44-11.15Q315.68-14.19 316.53-15.04L316.53-15.04Q317.02-15.40 317.42-15.40L317.42-15.40Q318.19-15.40 318.27-14.63ZM348.59-60.51L348.59-60.51Q340.04-47.66 331.93-33.64L331.93-33.64Q333.80-34.61 336.13-35.04Q338.46-35.46 339.41-35.46Q340.36-35.46 341.05-35.40Q341.74-35.34 342.81-34.96Q343.89-34.57 344.66-33.88L344.66-33.88Q346.52-32.22 346.52-29.18Q346.52-26.14 344.88-22.52Q343.24-18.89 340.42-15.24Q337.61-11.59 334.26-8.45Q330.92-5.31 327.07-3.33Q323.22-1.34 319.89-1.34L319.89-1.34Q318.35-1.34 316.35-3.33Q314.34-5.31 314.34-8.55Q314.34-11.80 317.14-18.61Q319.94-25.41 323.93-32.45Q327.92-39.48 332.07-46.16Q336.23-52.85 339.15-57.11Q342.06-61.36 342.71-62.01Q343.36-62.66 345.08-63.10Q346.80-63.55 348.06-63.53Q349.32-63.51 349.32-62.37L349.32-62.37Q349.32-61.65 348.59-60.51ZM337.65-21.60L337.65-21.60Q339.31-24.52 339.31-26.91Q339.31-29.30 337.79-29.30Q336.27-29.30 333.13-27.99Q329.99-26.67 329.54-26.67Q329.09-26.67 328.36-27.40L328.36-27.40Q320.46-13.17 320.46-9.24L320.46-9.24Q320.46-7.42 321.64-7.42L321.64-7.42Q324.43-7.42 329.70-12.10Q334.97-16.78 337.65-21.60ZM372.54-47.18L372.54-47.18Q372.54-44.87 370.39-42.54Q368.24-40.21 365.91-40.21Q363.58-40.21 363.58-42.64Q363.58-45.07 365.63-47.28Q367.68-49.49 370.15-49.49L370.15-49.49Q371.24-49.49 371.89-48.88Q372.54-48.27 372.54-47.18ZM365.97-11.80L365.97-11.80Q365.97-10.58 365.73-10.05L365.73-10.05Q363.75-6.00 359.41-3.51Q355.07-1.02 351.87-1.02Q348.67-1.02 346.36-3.16Q344.05-5.31 344.05-7.54Q344.05-9.77 346.28-14.03Q348.51-18.28 350.74-21.89Q352.97-25.49 352.97-25.80Q352.97-26.10 352.13-26.99Q351.30-27.89 351.30-28.31Q351.30-28.74 352.99-30.54Q354.67-32.34 357.08-34.11Q359.49-35.87 360.77-35.87Q362.04-35.87 363.06-34.74Q364.07-33.60 364.07-32.67Q364.07-31.74 354.42-15.12L354.42-15.12Q354.30-14.88 353.76-14.05Q353.21-13.22 352.90-12.67Q352.60-12.12 352.20-11.35L352.20-11.35Q351.38-9.73 351.38-8.64L351.38-8.64Q351.38-7.26 353.25-7.26Q355.11-7.26 357.12-8.53Q359.13-9.81 360.58-11.35L360.58-11.35Q364.39-15.44 364.92-15.44L364.92-15.44Q365.97-15.44 365.97-11.80ZM396.33-60.51L396.33-60.51Q387.78-47.66 379.67-33.64L379.67-33.64Q381.54-34.61 383.87-35.04Q386.20-35.46 387.15-35.46Q388.10-35.46 388.79-35.40Q389.48-35.34 390.55-34.96Q391.63-34.57 392.40-33.88L392.40-33.88Q394.26-32.22 394.26-29.18Q394.26-26.14 392.62-22.52Q390.98-18.89 388.16-15.24Q385.35-11.59 382.00-8.45Q378.66-5.31 374.81-3.33Q370.96-1.34 367.64-1.34L367.64-1.34Q366.10-1.34 364.09-3.33Q362.08-5.31 362.08-8.55Q362.08-11.80 364.88-18.61Q367.68-25.41 371.67-32.45Q375.66-39.48 379.81-46.16Q383.97-52.85 386.89-57.11Q389.80-61.36 390.45-62.01Q391.10-62.66 392.82-63.10Q394.55-63.55 395.80-63.53Q397.06-63.51 397.06-62.37L397.06-62.37Q397.06-61.65 396.33-60.51ZM385.39-21.60L385.39-21.60Q387.05-24.52 387.05-26.91Q387.05-29.30 385.53-29.30Q384.01-29.30 380.87-27.99Q377.73-26.67 377.28-26.67Q376.84-26.67 376.11-27.40L376.11-27.40Q368.20-13.17 368.20-9.24L368.20-9.24Q368.20-7.42 369.38-7.42L369.38-7.42Q372.18-7.42 377.44-12.10Q382.71-16.78 385.39-21.60Z"></path></g></g></svg>
