<svg width="920.5" height="187.75" viewBox="0 0 920.5 187.75" xmlns="http://www.w3.org/2000/svg"><g id="svgGroup" stroke-linecap="round" fill-rule="evenodd" font-size="9pt" stroke="#000" stroke-width="0.25mm" fill="none" style="stroke:#000;stroke-width:0.25mm;fill:none"><path d="M 23.25 187.75 L 0 187.75 L 35.25 12.75 L 58 12.75 L 92.75 187.75 L 69.5 187.75 L 62.75 155 L 29.5 155 L 23.25 187.75 Z M 46.75 69.75 L 34 132 L 58.75 132 L 46.75 69.75 Z" id="0" vector-effect="non-scaling-stroke" style="stroke-width: 2px; stroke: rgb(251, 249, 249); animation: 3s linear 0s infinite normal none running svg-text-anim;"></path><path d="M 176.25 187.5 L 124 187.5 Q 116.25 187.5 111 182.25 A 17.615 17.615 0 0 1 105.751 169.492 A 22.705 22.705 0 0 1 105.75 169.25 L 105.75 80.75 Q 105.75 73 111 67.75 A 17.615 17.615 0 0 1 123.758 62.501 A 22.705 22.705 0 0 1 124 62.5 L 152.75 62.5 L 152.75 5.5 L 176.25 0 L 176.25 187.5 Z M 138.25 164 L 152.75 164 L 152.75 86 L 138.25 86 Q 134.75 86 132 88.5 A 8.27 8.27 0 0 0 129.262 94.475 A 11.217 11.217 0 0 0 129.25 95 L 129.25 155 Q 129.25 158.5 132 161.25 A 9.977 9.977 0 0 0 134.454 163.081 A 8.129 8.129 0 0 0 138.25 164 Z" id="1" vector-effect="non-scaling-stroke" style="stroke-width: 2px; stroke: rgb(251, 249, 249); animation: 3s linear 0.1s infinite normal none running svg-text-anim;"></path><path d="M 259.25 187.5 L 207 187.5 A 17.774 17.774 0 0 1 194.13 182.255 A 23.651 23.651 0 0 1 194.125 182.25 Q 188.75 177 188.75 169.25 L 188.75 131.5 A 17.537 17.537 0 0 1 193.958 118.793 A 21.636 21.636 0 0 1 194.125 118.625 A 21.722 21.722 0 0 1 194.209 118.541 Q 199.559 113.25 207 113.25 L 226.5 113.25 A 9.998 9.998 0 0 0 229.843 112.711 A 8.673 8.673 0 0 0 233.125 110.625 A 8.666 8.666 0 0 0 235.749 104.367 A 10.641 10.641 0 0 0 235.75 104.25 L 235.75 95 Q 235.75 91.25 233.125 88.625 A 8.865 8.865 0 0 0 227.056 86.013 A 11.765 11.765 0 0 0 226.5 86 L 199.5 86 L 204.75 62.5 L 241 62.5 A 17.537 17.537 0 0 1 253.707 67.708 A 21.636 21.636 0 0 1 253.875 67.875 A 17.921 17.921 0 0 1 258.43 75.215 A 18.33 18.33 0 0 1 259.25 80.75 L 259.25 187.5 Z M 221.25 164 L 235.75 164 L 235.75 136.75 L 221.25 136.75 Q 217.5 136.75 214.875 139.375 A 8.666 8.666 0 0 0 212.251 145.633 A 10.641 10.641 0 0 0 212.25 145.75 L 212.25 155 Q 212.25 158.75 214.875 161.375 A 8.666 8.666 0 0 0 221.133 163.999 A 10.641 10.641 0 0 0 221.25 164 Z" id="2" vector-effect="non-scaling-stroke" style="stroke-width: 2px; stroke: rgb(251, 249, 249); animation: 3s linear 0.2s infinite normal none running svg-text-anim;"></path><path d="M 299.5 187.5 L 276 187.5 L 276 62.5 L 375.25 62.5 A 17.124 17.124 0 0 1 387.753 67.626 A 20.824 20.824 0 0 1 388 67.875 A 17.774 17.774 0 0 1 393.25 80.743 A 22.347 22.347 0 0 1 393.25 80.75 L 393.25 187.5 L 370 187.5 L 370 95 A 8.457 8.457 0 0 0 367.422 88.793 A 10.496 10.496 0 0 0 367.25 88.625 Q 364.5 86 360.75 86 L 346.5 86 L 346.5 187.5 L 323 187.5 L 323 95 A 8.457 8.457 0 0 0 320.422 88.793 A 10.496 10.496 0 0 0 320.25 88.625 Q 317.5 86 313.75 86 L 299.5 86 L 299.5 187.5 Z" id="3" vector-effect="non-scaling-stroke" style="stroke-width: 2px; stroke: rgb(251, 249, 249); animation: 3s linear 0.3s infinite normal none running svg-text-anim;"></path><path d="M 542.75 187.5 L 459.75 187.5 L 459.75 12.5 L 483 12.5 L 483 164.25 L 542.75 164.25 L 542.75 187.5 Z" id="5" vector-effect="non-scaling-stroke" style="stroke-width: 2px; stroke: rgb(251, 249, 249); animation: 3s linear 0.4s infinite normal none running svg-text-anim;"></path><path d="M 625.25 187.5 L 573 187.5 A 17.774 17.774 0 0 1 560.13 182.255 A 23.651 23.651 0 0 1 560.125 182.25 Q 554.75 177 554.75 169.25 L 554.75 131.5 A 17.537 17.537 0 0 1 559.958 118.793 A 21.636 21.636 0 0 1 560.125 118.625 A 21.722 21.722 0 0 1 560.209 118.541 Q 565.559 113.25 573 113.25 L 592.5 113.25 A 9.998 9.998 0 0 0 595.843 112.711 A 8.673 8.673 0 0 0 599.125 110.625 A 8.666 8.666 0 0 0 601.749 104.367 A 10.641 10.641 0 0 0 601.75 104.25 L 601.75 95 Q 601.75 91.25 599.125 88.625 A 8.865 8.865 0 0 0 593.056 86.013 A 11.765 11.765 0 0 0 592.5 86 L 565.5 86 L 570.75 62.5 L 607 62.5 A 17.537 17.537 0 0 1 619.707 67.708 A 21.636 21.636 0 0 1 619.875 67.875 A 17.921 17.921 0 0 1 624.43 75.215 A 18.33 18.33 0 0 1 625.25 80.75 L 625.25 187.5 Z M 587.25 164 L 601.75 164 L 601.75 136.75 L 587.25 136.75 Q 583.5 136.75 580.875 139.375 A 8.666 8.666 0 0 0 578.251 145.633 A 10.641 10.641 0 0 0 578.25 145.75 L 578.25 155 Q 578.25 158.75 580.875 161.375 A 8.666 8.666 0 0 0 587.133 163.999 A 10.641 10.641 0 0 0 587.25 164 Z" id="6" vector-effect="non-scaling-stroke" style="stroke-width: 2px; stroke: rgb(251, 249, 249); animation: 3s linear 0.5s infinite normal none running svg-text-anim;"></path><path d="M 663.75 187.5 L 640.25 187.5 L 640.25 5.25 L 663.75 0 L 663.75 62.5 L 692.5 62.5 A 17.124 17.124 0 0 1 705.003 67.626 A 20.824 20.824 0 0 1 705.25 67.875 A 17.774 17.774 0 0 1 710.5 80.743 A 22.347 22.347 0 0 1 710.5 80.75 L 710.5 187.5 L 687 187.5 L 687 95 Q 687 91.25 684.375 88.625 A 8.666 8.666 0 0 0 678.117 86.001 A 10.641 10.641 0 0 0 678 86 L 663.75 86 L 663.75 187.5 Z" id="7" vector-effect="non-scaling-stroke" style="stroke-width: 2px; stroke: rgb(251, 249, 249); animation: 3s linear 0.6s infinite normal none running svg-text-anim;"></path><path d="M 777.75 187.5 L 725.5 187.5 L 725.5 5.25 L 749 0 L 749 62.5 L 777.75 62.5 A 17.774 17.774 0 0 1 790.62 67.745 A 23.651 23.651 0 0 1 790.625 67.75 Q 796 73 796 80.75 L 796 169.25 A 20.865 20.865 0 0 1 796 169.367 Q 795.958 176.792 790.625 182.125 A 17.921 17.921 0 0 1 783.285 186.68 A 18.33 18.33 0 0 1 777.75 187.5 Z M 749 86 L 749 164 L 763.25 164 Q 767 164 769.75 161.375 A 8.742 8.742 0 0 0 771.974 158.066 A 8.781 8.781 0 0 0 772.5 155 L 772.5 95 A 8.457 8.457 0 0 0 769.922 88.793 A 10.496 10.496 0 0 0 769.75 88.625 Q 767 86 763.25 86 L 749 86 Z" id="8" vector-effect="non-scaling-stroke" style="stroke-width: 2px; stroke: rgb(251, 249, 249); animation: 3s linear 0.7s infinite normal none running svg-text-anim;"></path><path d="M 832.5 187.5 L 809 187.5 L 809 68 L 832.5 62.5 L 832.5 187.5 Z M 832 23.5 L 808.5 29 L 808.5 5.5 L 832 0 L 832 23.5 Z" id="9" vector-effect="non-scaling-stroke" style="stroke-width: 2px; stroke: rgb(251, 249, 249); animation: 3s linear 0.8s infinite normal none running svg-text-anim;"></path><path d="M 902.25 187.5 L 850 187.5 L 850 5.25 L 873.5 0 L 873.5 62.5 L 902.25 62.5 A 17.774 17.774 0 0 1 915.12 67.745 A 23.651 23.651 0 0 1 915.125 67.75 Q 920.5 73 920.5 80.75 L 920.5 169.25 A 20.865 20.865 0 0 1 920.5 169.367 Q 920.458 176.792 915.125 182.125 A 17.921 17.921 0 0 1 907.785 186.68 A 18.33 18.33 0 0 1 902.25 187.5 Z M 873.5 86 L 873.5 164 L 887.75 164 Q 891.5 164 894.25 161.375 A 8.742 8.742 0 0 0 896.474 158.066 A 8.781 8.781 0 0 0 897 155 L 897 95 A 8.457 8.457 0 0 0 894.422 88.793 A 10.496 10.496 0 0 0 894.25 88.625 Q 891.5 86 887.75 86 L 873.5 86 Z" id="10" vector-effect="non-scaling-stroke" style="stroke-width: 2px; stroke: rgb(251, 249, 249); animation: 3s linear 0.9s infinite normal none running svg-text-anim;"></path></g></svg>
