<svg width="677.401" height="109.502" viewBox="0 0 677.401 109.502" xmlns="http://www.w3.org/2000/svg">
	<defs><mask id="a"><g stroke-dashoffset="1"><path d="M17 2l43-58 61-98 21 69 39 80-40-60-66 18 167-122-10 68-4 93 29-63 21-20 19-9 19 15 4 22-17 29-56 45 119-80 29-90L374 5l39-52 22-27 20-11h12l3 27 2 28 28 10 39-26 11-16 21-28-6 46 6 27 15-168-7 175s14 5 17 3 40-27 40-27l25-27 17-39-9 79 20-19 10-15 21-22 11-8 15-2 7 35 8 15 6 15 19-4 20-11 16-13 33-29 24-22 29 1v38l-15 24-24 19-30 11-8-19 1-17 74 9 22 10 28-9 17-16 18-14 14-35-11 72 20-20 20-20 24-25 19 10 4 35 8 26 27-3 21-17 17-17 14-19 19-21 22-14 20 7 4 26-7 31-22 23-36 18-15-10 2-22 107-130v22l-5 32-5 22-1 16-2 23-3 17 20 16 23-9 15-16 18-22 22-16 17-16 22-5 11 9v19l-4 24-11 19-19 10-30 18-11-15 9-36 67 20 12 7h24l21-13 18-12 10-20 11-22-4 46-5 29 14-12 12-15 11-13 10-19 12-4 15-2 9 15 3 18 4 21 11 9h15l24-10 16-15 14-18L515 144l52-1 35-1 23 2 28-7 41-11h24l-79 27-4 15-4 36-3 32 2 36 123-121v34l-3 19-3 23-3 28 1 17 29-56 16-18 24-20 30 5 28-1-6 30-5 25 12 24 14 8 26-12-31-163 48 157 12-15 15-15 7-17 9-29 7-30 10-29-17 121 12 26 36-7 14-14 21-12 15-26 16-16 28-16 20 20 7 39-21 20-50 15-12-21 90-57 15 1 18 2h13l26-75-19 153 19-39 25-25 36-42-40 73 9 10 17 19 25 7 28-18 20-18 16-24 12-28-1 56 6 26 12-179-2 186 21-9 28-16 14-24 22-21 23-19 24-12 20 7-6 23-6 26-12 16-40 24-16-4 4-40 75 18 17 9 24-12 23-14 18-16" stroke-dasharray="9940" stroke-dashoffset="9940" fill="none" stroke-linecap="round" stroke="#fff" stroke-width="50"><animate attributeName="stroke-dashoffset" dur="6s" from="9940" to="0" fill="freeze"/></path></g></mask></defs>
	<g id="svgGroup" stroke-linecap="round" fill-rule="evenodd" font-size="9pt" stroke="#000" stroke-width="0.25mm" fill="none" style="stroke:#000;stroke-width:0.25mm;fill:none">
		<path d="M 25.5 2.25 L 35.4 2.25 L 9.9 107.25 L 0 107.25 L 25.5 2.25 Z M 25.8 2.25 L 35.7 2.25 L 61.2 107.25 L 51.3 107.25 L 25.8 2.25 Z M 50.85 84.75 L 12.6 84.75 L 12.6 75.3 L 50.85 75.3 L 50.85 84.75 Z" id="0" vector-effect="non-scaling-stroke"/>
		<path d="M 123.9 107.25 L 114 107.25 L 114 32.25 L 123.9 32.25 L 123.9 107.25 Z M 82.35 54.75 L 72.45 54.75 Q 72.45 47.7 75.525 42.075 Q 78.6 36.45 83.925 33.225 A 22.427 22.427 0 0 1 94.335 30.05 A 27.195 27.195 0 0 1 96 30 A 24.234 24.234 0 0 1 104.186 31.356 A 22.297 22.297 0 0 1 108.15 33.225 Q 113.55 36.45 116.625 42.075 Q 119.7 47.7 119.7 54.75 L 114 54.75 A 15.123 15.123 0 0 0 113.011 49.198 A 13.796 13.796 0 0 0 109.5 44.1 Q 105 39.9 98.1 39.9 L 96 30 L 98.1 39.9 Q 105 39.9 109.5 44.1 M 82.35 84.75 L 72.45 84.75 Q 72.45 91.8 75.525 97.425 Q 78.6 103.05 83.925 106.275 A 21.701 21.701 0 0 0 88.326 108.31 A 24.148 24.148 0 0 0 96 109.5 A 27.493 27.493 0 0 0 97.254 109.472 A 22.946 22.946 0 0 0 108.15 106.275 Q 113.55 103.05 116.625 97.425 Q 119.7 91.8 119.7 84.75 L 114 84.75 A 18.049 18.049 0 0 1 113.99 85.35 A 13.838 13.838 0 0 1 109.5 95.4 A 15.036 15.036 0 0 1 103.587 98.825 A 18.587 18.587 0 0 1 98.1 99.6 A 20.498 20.498 0 0 1 96.549 99.542 A 15.494 15.494 0 0 1 86.85 95.4 A 13.796 13.796 0 0 1 83.339 90.302 A 15.123 15.123 0 0 1 82.35 84.75 Z M 123.9 2.25 L 123.9 32.4 L 114 32.4 L 114 2.25 L 123.9 2.25 Z M 82.35 84.75 L 72.45 84.75 L 72.45 54.75 L 82.35 54.75 L 82.35 84.75 Z M 82.35 54.75 A 18.049 18.049 0 0 1 82.36 54.15 A 13.838 13.838 0 0 1 86.85 44.1 A 15.085 15.085 0 0 1 92.445 40.762 A 17.845 17.845 0 0 1 98.1 39.9 M 98.1 99.6 L 96 109.5 L 98.1 99.6 Z" id="1" vector-effect="non-scaling-stroke"/>
		<path d="M 192.3 54.75 L 182.4 54.75 Q 182.4 48.15 177.9 43.8 A 15.326 15.326 0 0 0 167.691 39.477 A 20.163 20.163 0 0 0 166.65 39.45 A 18.849 18.849 0 0 0 160.536 40.415 A 16.775 16.775 0 0 0 156.15 42.675 Q 151.65 45.9 150.9 52.95 L 141.3 50.85 Q 142.05 44.85 145.575 40.2 A 25.3 25.3 0 0 1 153.964 33.129 A 29.39 29.39 0 0 1 154.65 32.775 Q 160.2 30 166.65 30 L 166.65 39.45 L 166.65 30 Q 160.2 30 154.65 32.775 M 165.15 70.65 A 17.114 17.114 0 0 0 159.249 71.635 A 15.179 15.179 0 0 0 154.05 74.85 A 13.838 13.838 0 0 0 149.56 84.9 A 18.049 18.049 0 0 0 149.55 85.5 A 15.685 15.685 0 0 0 150.538 91.154 A 14.158 14.158 0 0 0 153.9 96.225 A 16.068 16.068 0 0 0 157.608 98.993 A 12.689 12.689 0 0 0 163.65 100.5 A 19.899 19.899 0 0 0 168.501 99.936 A 15.127 15.127 0 0 0 173.775 97.5 Q 177.9 94.5 180.15 88.725 A 31.252 31.252 0 0 0 181.82 82.513 Q 182.4 79.037 182.4 75 L 182.4 54.6 L 188.1 54.6 L 188.1 75 M 192.3 107.25 L 182.4 107.25 L 182.4 54.75 L 192.3 54.75 L 192.3 107.25 Z M 188.1 75 A 56.265 56.265 0 0 1 187.408 84.035 A 41.793 41.793 0 0 1 184.95 93 A 34.562 34.562 0 0 1 181.749 99.165 A 25.673 25.673 0 0 1 176.325 105.15 Q 170.85 109.5 163.65 109.5 Q 157.2 109.5 151.725 106.35 Q 146.25 103.2 142.95 97.725 A 23.136 23.136 0 0 1 139.653 85.921 A 27.371 27.371 0 0 1 139.65 85.5 A 24.003 24.003 0 0 1 140.718 78.236 A 21.084 21.084 0 0 1 143.025 73.275 Q 146.4 67.95 152.175 64.8 A 26.011 26.011 0 0 1 162.935 61.727 A 31.476 31.476 0 0 1 165.15 61.65 M 165.15 61.65 L 165.15 70.65 L 190.35 70.65 L 190.35 61.65 L 165.15 61.65 Z M 166.65 30 A 28.645 28.645 0 0 1 174.42 31.02 A 24.541 24.541 0 0 1 179.775 33.225 Q 185.55 36.45 188.925 42.075 A 23.846 23.846 0 0 1 192.27 53.441 A 28.649 28.649 0 0 1 192.3 54.75 M 190.35 61.65 L 165.15 61.65 L 165.15 70.65 M 139.65 85.5 L 149.55 85.5 L 139.65 85.5 Z M 163.65 109.5 L 163.65 100.5 L 163.65 109.5 Z M 182.4 75 L 188.1 75 L 182.4 75 Z" id="2" vector-effect="non-scaling-stroke"/>
		<path d="M 217.95 107.25 L 208.05 107.25 L 208.05 32.25 L 217.95 32.25 L 217.95 107.25 Z M 294.75 107.25 L 284.85 107.25 L 284.85 54.75 L 294.75 54.75 L 294.75 107.25 Z M 256.35 107.25 L 246.45 107.25 L 246.45 54.75 L 256.35 54.75 L 256.35 107.25 Z M 222.975 33.225 Q 228 30 234.3 30 L 232.2 39.9 L 234.3 30 Q 228 30 222.975 33.225 Q 217.95 36.45 215.025 42.075 A 25.013 25.013 0 0 0 213.078 47.075 A 29.176 29.176 0 0 0 212.1 54.75 L 217.95 54.75 A 19.061 19.061 0 0 1 218.001 53.342 A 14.253 14.253 0 0 1 222.075 44.1 A 14.024 14.024 0 0 1 226.043 41.229 A 14.098 14.098 0 0 1 232.2 39.9 M 261.375 33.225 Q 266.4 30 272.7 30 L 270.6 39.9 L 272.7 30 Q 266.4 30 261.375 33.225 Q 256.35 36.45 253.425 42.075 A 25.013 25.013 0 0 0 251.478 47.075 A 29.176 29.176 0 0 0 250.5 54.75 L 256.35 54.75 L 246.45 54.75 M 272.7 30 A 21.05 21.05 0 0 1 280.929 31.594 A 20.185 20.185 0 0 1 284.025 33.225 A 22.107 22.107 0 0 1 291.72 41.726 A 26.067 26.067 0 0 1 291.9 42.075 Q 294.75 47.7 294.75 54.75 L 284.85 54.75 M 234.3 30 A 21.05 21.05 0 0 1 242.529 31.594 A 20.185 20.185 0 0 1 245.625 33.225 A 22.107 22.107 0 0 1 253.32 41.726 A 26.067 26.067 0 0 1 253.5 42.075 Q 256.35 47.7 256.35 54.75 M 246.45 54.75 A 16.821 16.821 0 0 0 245.675 49.538 A 13.932 13.932 0 0 0 242.4 44.1 Q 238.35 39.9 232.2 39.9 M 284.85 54.75 A 16.821 16.821 0 0 0 284.075 49.538 A 13.932 13.932 0 0 0 280.8 44.1 Q 276.75 39.9 270.6 39.9 M 256.35 54.75 A 19.061 19.061 0 0 1 256.401 53.342 A 14.253 14.253 0 0 1 260.475 44.1 A 14.024 14.024 0 0 1 264.443 41.229 A 14.098 14.098 0 0 1 270.6 39.9" id="3" vector-effect="non-scaling-stroke"/>
		<path d="M 347.4 107.25 L 337.5 107.25 L 337.5 2.25 L 347.4 2.25 L 347.4 107.25 Z M 382.5 107.25 L 342.9 107.25 L 342.9 97.8 L 382.5 97.8 L 382.5 107.25 Z" id="5" vector-effect="non-scaling-stroke"/>
		<path d="M 444.9 54.75 L 435 54.75 Q 435 48.15 430.5 43.8 A 15.326 15.326 0 0 0 420.291 39.477 A 20.163 20.163 0 0 0 419.25 39.45 A 18.849 18.849 0 0 0 413.136 40.415 A 16.775 16.775 0 0 0 408.75 42.675 Q 404.25 45.9 403.5 52.95 L 393.9 50.85 Q 394.65 44.85 398.175 40.2 A 25.3 25.3 0 0 1 406.564 33.129 A 29.39 29.39 0 0 1 407.25 32.775 Q 412.8 30 419.25 30 L 419.25 39.45 L 419.25 30 Q 412.8 30 407.25 32.775 M 417.75 70.65 A 17.114 17.114 0 0 0 411.849 71.635 A 15.179 15.179 0 0 0 406.65 74.85 A 13.838 13.838 0 0 0 402.16 84.9 A 18.049 18.049 0 0 0 402.15 85.5 A 15.685 15.685 0 0 0 403.138 91.154 A 14.158 14.158 0 0 0 406.5 96.225 A 16.068 16.068 0 0 0 410.208 98.993 A 12.689 12.689 0 0 0 416.25 100.5 A 19.899 19.899 0 0 0 421.101 99.936 A 15.127 15.127 0 0 0 426.375 97.5 Q 430.5 94.5 432.75 88.725 A 31.252 31.252 0 0 0 434.42 82.513 Q 435 79.037 435 75 L 435 54.6 L 440.7 54.6 L 440.7 75 M 444.9 107.25 L 435 107.25 L 435 54.75 L 444.9 54.75 L 444.9 107.25 Z M 440.7 75 A 56.265 56.265 0 0 1 440.008 84.035 A 41.793 41.793 0 0 1 437.55 93 A 34.562 34.562 0 0 1 434.349 99.165 A 25.673 25.673 0 0 1 428.925 105.15 Q 423.45 109.5 416.25 109.5 Q 409.8 109.5 404.325 106.35 Q 398.85 103.2 395.55 97.725 A 23.136 23.136 0 0 1 392.253 85.921 A 27.371 27.371 0 0 1 392.25 85.5 A 24.003 24.003 0 0 1 393.318 78.236 A 21.084 21.084 0 0 1 395.625 73.275 Q 399 67.95 404.775 64.8 A 26.011 26.011 0 0 1 415.535 61.727 A 31.476 31.476 0 0 1 417.75 61.65 M 417.75 61.65 L 417.75 70.65 L 442.95 70.65 L 442.95 61.65 L 417.75 61.65 Z M 419.25 30 A 28.645 28.645 0 0 1 427.02 31.02 A 24.541 24.541 0 0 1 432.375 33.225 Q 438.15 36.45 441.525 42.075 A 23.846 23.846 0 0 1 444.87 53.441 A 28.649 28.649 0 0 1 444.9 54.75 M 442.95 61.65 L 417.75 61.65 L 417.75 70.65 M 392.25 85.5 L 402.15 85.5 L 392.25 85.5 Z M 416.25 109.5 L 416.25 100.5 L 416.25 109.5 Z M 435 75 L 440.7 75 L 435 75 Z" id="6" vector-effect="non-scaling-stroke"/>
		<path d="M 460.65 107.25 L 470.55 107.25 L 470.55 0 L 460.65 0 L 460.65 107.25 Z M 470.55 107.25 L 460.65 107.25 L 460.65 32.25 L 470.55 32.25 L 470.55 107.25 Z M 502.2 54.75 A 15.123 15.123 0 0 0 501.211 49.198 A 13.796 13.796 0 0 0 497.7 44.1 A 15.494 15.494 0 0 0 488.001 39.958 A 20.498 20.498 0 0 0 486.45 39.9 A 18.587 18.587 0 0 0 480.963 40.675 A 15.036 15.036 0 0 0 475.05 44.1 A 13.838 13.838 0 0 0 470.56 54.15 A 18.049 18.049 0 0 0 470.55 54.75 L 464.85 54.75 A 27.131 27.131 0 0 1 465.96 46.88 A 23.959 23.959 0 0 1 468 42.075 Q 471.15 36.45 476.475 33.225 A 22.427 22.427 0 0 1 486.885 30.05 A 27.195 27.195 0 0 1 488.55 30 A 24.148 24.148 0 0 1 496.224 31.19 A 21.701 21.701 0 0 1 500.625 33.225 Q 505.95 36.45 509.025 42.075 Q 512.1 47.7 512.1 54.75 L 502.2 54.75 Z M 512.1 107.25 L 502.2 107.25 L 502.2 54.75 L 512.1 54.75 L 512.1 107.25 Z M 486.45 39.9 L 488.55 30 L 486.45 39.9 Z" id="7" vector-effect="non-scaling-stroke"/>
		<path d="M 537.75 32.25 L 537.75 107.25 L 527.85 107.25 L 527.85 32.25 L 537.75 32.25 Z M 569.4 84.75 L 579.3 84.75 Q 579.3 91.8 576.225 97.425 Q 573.15 103.05 567.825 106.275 A 22.427 22.427 0 0 1 557.415 109.45 A 27.195 27.195 0 0 1 555.75 109.5 A 24.148 24.148 0 0 1 548.076 108.31 A 21.701 21.701 0 0 1 543.675 106.275 Q 538.35 103.05 535.2 97.425 A 24.884 24.884 0 0 1 532.127 86.918 A 30.151 30.151 0 0 1 532.05 84.75 L 537.75 84.75 A 15.123 15.123 0 0 0 538.739 90.302 A 13.796 13.796 0 0 0 542.25 95.4 Q 546.75 99.6 553.65 99.6 L 555.75 109.5 L 553.65 99.6 Q 546.75 99.6 542.25 95.4 M 569.4 54.75 A 15.123 15.123 0 0 0 568.411 49.198 A 13.796 13.796 0 0 0 564.9 44.1 A 15.494 15.494 0 0 0 555.201 39.958 A 20.498 20.498 0 0 0 553.65 39.9 A 18.587 18.587 0 0 0 548.163 40.675 A 15.036 15.036 0 0 0 542.25 44.1 A 13.838 13.838 0 0 0 537.76 54.15 A 18.049 18.049 0 0 0 537.75 54.75 L 532.05 54.75 A 27.131 27.131 0 0 1 533.16 46.88 A 23.959 23.959 0 0 1 535.2 42.075 Q 538.35 36.45 543.675 33.225 A 22.427 22.427 0 0 1 554.085 30.05 A 27.195 27.195 0 0 1 555.75 30 A 24.148 24.148 0 0 1 563.424 31.19 A 21.701 21.701 0 0 1 567.825 33.225 Q 573.15 36.45 576.225 42.075 Q 579.3 47.7 579.3 54.75 L 569.4 54.75 Z M 537.75 32.4 L 527.85 32.4 L 527.85 2.25 L 537.75 2.25 L 537.75 32.4 Z M 579.3 54.75 L 579.3 84.75 L 569.4 84.75 L 569.4 54.75 L 579.3 54.75 Z M 569.4 84.75 A 18.049 18.049 0 0 1 569.39 85.35 A 13.838 13.838 0 0 1 564.9 95.4 A 15.085 15.085 0 0 1 559.305 98.738 A 17.845 17.845 0 0 1 553.65 99.6 M 553.65 39.9 L 555.75 30 L 553.65 39.9 Z" id="8" vector-effect="non-scaling-stroke"/>
		<path d="M 606.45 107.25 L 596.55 107.25 L 596.55 32.25 L 606.45 32.25 L 606.45 107.25 Z M 598.736 21.873 A 7.762 7.762 0 0 0 601.5 22.35 Q 604.65 22.35 606.825 20.25 A 6.977 6.977 0 0 0 608.465 17.867 A 7.481 7.481 0 0 0 609 15 Q 609 11.85 606.825 9.675 A 7.399 7.399 0 0 0 604.715 8.179 A 7.513 7.513 0 0 0 601.5 7.5 A 8.984 8.984 0 0 0 601.304 7.502 A 6.965 6.965 0 0 0 596.25 9.675 Q 594.15 11.85 594.15 15 A 9.299 9.299 0 0 0 594.152 15.202 A 7.084 7.084 0 0 0 596.25 20.25 A 6.976 6.976 0 0 0 598.736 21.873 Z" id="9" vector-effect="non-scaling-stroke"/>
		<path d="M 635.85 32.25 L 635.85 107.25 L 625.95 107.25 L 625.95 32.25 L 635.85 32.25 Z M 667.5 84.75 L 677.4 84.75 Q 677.4 91.8 674.325 97.425 Q 671.25 103.05 665.925 106.275 A 22.427 22.427 0 0 1 655.515 109.45 A 27.195 27.195 0 0 1 653.85 109.5 A 24.148 24.148 0 0 1 646.176 108.31 A 21.701 21.701 0 0 1 641.775 106.275 Q 636.45 103.05 633.3 97.425 A 24.884 24.884 0 0 1 630.227 86.918 A 30.151 30.151 0 0 1 630.15 84.75 L 635.85 84.75 A 15.123 15.123 0 0 0 636.839 90.302 A 13.796 13.796 0 0 0 640.35 95.4 Q 644.85 99.6 651.75 99.6 L 653.85 109.5 L 651.75 99.6 Q 644.85 99.6 640.35 95.4 M 667.5 54.75 A 15.123 15.123 0 0 0 666.511 49.198 A 13.796 13.796 0 0 0 663 44.1 A 15.494 15.494 0 0 0 653.301 39.958 A 20.498 20.498 0 0 0 651.75 39.9 A 18.587 18.587 0 0 0 646.263 40.675 A 15.036 15.036 0 0 0 640.35 44.1 A 13.838 13.838 0 0 0 635.86 54.15 A 18.049 18.049 0 0 0 635.85 54.75 L 630.15 54.75 A 27.131 27.131 0 0 1 631.26 46.88 A 23.959 23.959 0 0 1 633.3 42.075 Q 636.45 36.45 641.775 33.225 A 22.427 22.427 0 0 1 652.185 30.05 A 27.195 27.195 0 0 1 653.85 30 A 24.148 24.148 0 0 1 661.524 31.19 A 21.701 21.701 0 0 1 665.925 33.225 Q 671.25 36.45 674.325 42.075 Q 677.4 47.7 677.4 54.75 L 667.5 54.75 Z M 635.85 32.4 L 625.95 32.4 L 625.95 2.25 L 635.85 2.25 L 635.85 32.4 Z M 677.4 54.75 L 677.4 84.75 L 667.5 84.75 L 667.5 54.75 L 677.4 54.75 Z M 667.5 84.75 A 18.049 18.049 0 0 1 667.49 85.35 A 13.838 13.838 0 0 1 663 95.4 A 15.085 15.085 0 0 1 657.405 98.738 A 17.845 17.845 0 0 1 651.75 99.6 M 651.75 39.9 L 653.85 30 L 651.75 39.9 Z" id="10" vector-effect="non-scaling-stroke"/>
	</g>
</svg>
